<svg xmlns="http://www.w3.org/2000/svg" version="1.1" viewBox="-5.0 -10.0 110.0 135.0">
 <g>
  <path d="m22.82 59.09h2.0312v7.0898c0 0.78125 0.46094 1.5 1.1719 1.8203 0.26953 0.12109 0.55078 0.17969 0.82812 0.17969 0.46875 0 0.94141-0.17188 1.3203-0.48828l9.8516-8.6016h25.82c3.4492 0 6.2617-2.8086 6.2617-6.2617l-0.003907-24.539c0-3.4492-2.8086-6.2617-6.2617-6.2617l-41.02 0.003906c-3.4492 0-6.2617 2.8086-6.2617 6.2617v24.539c0 3.4492 2.8125 6.2578 6.2617 6.2578zm-2.2617-30.801c0-1.25 1.0117-2.2617 2.2617-2.2617h41.012c1.25 0 2.2617 1.0117 2.2617 2.2617v24.539c0 1.25-1.0117 2.2617-2.2617 2.2617h-26.562c-0.48047 0-0.94922 0.17969-1.3203 0.48828l-7.1016 6.1914v-4.6914c0-1.1016-0.89844-2-2-2h-4.0312c-1.25 0-2.2617-1.0117-2.2617-2.2617z"/>
  <path d="m77.18 31.82h-1.9297c-1.1016 0-2 0.89844-2 2 0 1.1016 0.89844 2 2 2h1.9297c1.25 0 2.2617 1.0117 2.2617 2.2617v24.539c0 1.25-1.0117 2.2617-2.2617 2.2617h-4.0312c-1.1016 0-2 0.89844-2 2v4.6914l-7.1016-6.1914c-0.35938-0.32031-0.82812-0.48828-1.3203-0.48828l-23.148-0.003906c-1.1016 0-2 0.89844-2 2s0.89844 2 2 2h22.41l9.8516 8.6016c0.37109 0.32031 0.83984 0.48828 1.3203 0.48828 0.28125 0 0.55859-0.058594 0.82812-0.17969 0.71094-0.32031 1.1719-1.0391 1.1719-1.8203v-7.0898h2.0312c3.4492 0 6.2617-2.8086 6.2617-6.2617l-0.003906-24.551c-0.007813-3.4492-2.8203-6.2578-6.2695-6.2578z"/>
  <path d="m34.871 42.949c1.1484 0 2.0703-0.92969 2.0703-2.0703s-0.92969-2.0703-2.0703-2.0703c-1.1484 0-2.0703 0.92969-2.0703 2.0703s0.92969 2.0703 2.0703 2.0703z"/>
  <path d="m43.77 42.949c1.1484 0 2.0703-0.92969 2.0703-2.0703s-0.92969-2.0703-2.0703-2.0703c-1.1484 0-2.0703 0.92969-2.0703 2.0703s0.92969 2.0703 2.0703 2.0703z"/>
  <path d="m54.738 40.871c0 2.7578-4.1367 2.7578-4.1367 0 0-2.7617 4.1367-2.7617 4.1367 0"/>
 </g>
<text x="0.0" y="117.5" font-size="5.0" font-weight="bold" font-family="Arbeit Regular, Helvetica, Arial-Unicode, Arial, Sans-serif" fill="#000000">Created by Fharaz</text><text x="0.0" y="122.5" font-size="5.0" font-weight="bold" font-family="Arbeit Regular, Helvetica, Arial-Unicode, Arial, Sans-serif" fill="#000000">from Noun Project</text></svg>