<svg xmlns="http://www.w3.org/2000/svg" version="1.1" viewBox="-5.0 -10.0 110.0 135.0">
 <g>
  <path d="m71.875 96.875h-43.75c-13.785 0-25-11.215-25-25v-43.75c0-13.785 11.215-25 25-25h43.75c13.785 0 25 11.215 25 25v43.75c0 13.785-11.215 25-25 25zm-43.75-87.5c-10.34 0-18.75 8.4102-18.75 18.75v43.75c0 10.34 8.4102 18.75 18.75 18.75h43.75c10.34 0 18.75-8.4102 18.75-18.75v-43.75c0-10.34-8.4102-18.75-18.75-18.75z"/>
  <path d="m34.535 61.055 26.516-26.516c1.2188-1.2188 3.4297-0.98828 4.418 0 1.2188 1.2188 1.2188 3.1992 0 4.418l-26.516 26.516c-1.2188 1.2188-3.4297 0.98828-4.418 0-1.2188-1.2188-1.2188-3.1992 0-4.418z"/>
  <path d="m34.535 34.539c1.2188-1.2188 3.4297-0.98828 4.418 0l26.516 26.516c1.2188 1.2188 1.2188 3.1992 0 4.418s-3.4297 0.98828-4.418 0l-26.516-26.516c-1.2188-1.2188-1.2188-3.1992 0-4.418z"/>
 </g>
</svg>