<svg xmlns="http://www.w3.org/2000/svg" viewBox="-5.0 -10.0 110.0 135.0" fill="none" x="0px" y="0px"><path fill-rule="evenodd" clip-rule="evenodd" d="M37 17.6C37 10.6618 42.6618 5 49.6 5C56.5382 5 62.2 10.6618 62.2 17.6C62.2 24.5382 56.5382 30.2 49.6 30.2C42.6618 30.2 37 24.5382 37 17.6ZM49.6 12.2C46.6382 12.2 44.2 14.6382 44.2 17.6C44.2 20.5618 46.6382 23 49.6 23C52.5618 23 55 20.5618 55 17.6C55 14.6382 52.5618 12.2 49.6 12.2ZM37 50C37 43.0618 42.6618 37.4 49.6 37.4C56.5382 37.4 62.2 43.0618 62.2 50C62.2 56.9382 56.5382 62.6 49.6 62.6C42.6618 62.6 37 56.9382 37 50ZM49.6 44.6C46.6382 44.6 44.2 47.0382 44.2 50C44.2 52.9618 46.6382 55.4 49.6 55.4C52.5618 55.4 55 52.9618 55 50C55 47.0382 52.5618 44.6 49.6 44.6ZM49.6 69.8C42.6618 69.8 37 75.4618 37 82.4C37 89.3382 42.6618 95 49.6 95C56.5382 95 62.2 89.3382 62.2 82.4C62.2 75.4618 56.5382 69.8 49.6 69.8ZM44.2 82.4C44.2 79.4382 46.6382 77 49.6 77C52.5618 77 55 79.4382 55 82.4C55 85.3618 52.5618 87.8 49.6 87.8C46.6382 87.8 44.2 85.3618 44.2 82.4Z" fill="black"/>
</svg>