<svg xmlns="http://www.w3.org/2000/svg" version="1.1" viewBox="0.0 0.0 110.0 135.0">
 <path d="m88.449 41.613c3.1758 1.5898 5.1797 4.8398 5.1797 8.3867s-2.0039 6.7969-5.1797 8.3867l-68.629 34.312c-3.1367 1.5703-6.8906 1.2578-9.7266-0.80469-2.8242-2.0703-4.2695-5.5352-3.7344-9l4.9805-32.418c0.050781-0.32031 0.050781-0.63281 0-0.95312l-4.9805-32.418c-0.53516-3.4648 0.91016-6.9297 3.7344-9 2.8359-2.0625 6.5898-2.375 9.7266-0.80469zm-71.191 11.508-4.7227 30.723c-0.17969 1.1562 0.30078 2.3125 1.2461 3s2.1875 0.79297 3.2383 0.26953l68.637-34.32c1.0586-0.53125 1.7266-1.6133 1.7266-2.793s-0.66797-2.2617-1.7266-2.793l-68.637-34.32c-1.0508-0.52344-2.293-0.41797-3.2383 0.26953s-1.4258 1.8438-1.2461 3l4.7227 30.723h32.734c1.7266 0 3.1289 1.3945 3.1289 3.1211s-1.4023 3.1211-3.1289 3.1211z" fill-rule="evenodd"/>
</svg>